<svg id="Layer_1" data-name="Layer 1" xmlns="http://www.w3.org/2000/svg" viewBox="0 0 512 512"><title>clipboard-glyph</title><path d="M440.32,41H358.4V20.48A20.48,20.48,0,0,0,337.92,0H174.08A20.48,20.48,0,0,0,153.6,20.48V41H71.68A20.48,20.48,0,0,0,51.2,61.44V491.52A20.48,20.48,0,0,0,71.68,512H440.32a20.48,20.48,0,0,0,20.48-20.48V61.44A20.48,20.48,0,0,0,440.32,41ZM194.56,41H317.44v41H194.56ZM317.44,409.6H194.56a20.48,20.48,0,1,1,0-41H317.44a20.48,20.48,0,0,1,0,41Zm0-81.92H194.56a20.48,20.48,0,0,1,0-41H317.44a20.48,20.48,0,1,1,0,41Zm0-81.92H194.56a20.48,20.48,0,1,1,0-41H317.44a20.48,20.48,0,1,1,0,41Z"/></svg>