<svg id="Layer_1" data-name="Layer 1" xmlns="http://www.w3.org/2000/svg" viewBox="0 0 512 512"><defs><style>.cls-1{fill:#141f38;}</style></defs><title>notepad-1-outline</title><path class="cls-1" d="M358.4,204.8a12.8,12.8,0,0,1-12.8,12.8h-128a12.8,12.8,0,1,1,0-25.6h128A12.8,12.8,0,0,1,358.4,204.8ZM166.4,192a12.8,12.8,0,1,0,12.8,12.8A12.8,12.8,0,0,0,166.4,192Zm179.2,51.2h-128a12.8,12.8,0,1,0,0,25.6h128a12.8,12.8,0,0,0,0-25.6Zm-179.2,0A12.8,12.8,0,1,0,179.2,256,12.8,12.8,0,0,0,166.4,243.2Zm179.2,51.2h-128a12.8,12.8,0,1,0,0,25.6h128a12.8,12.8,0,0,0,0-25.6Zm-179.2,0a12.8,12.8,0,1,0,12.8,12.8A12.8,12.8,0,0,0,166.4,294.4Zm179.2,51.2h-128a12.8,12.8,0,0,0,0,25.6h128a12.8,12.8,0,0,0,0-25.6Zm-179.2,0a12.8,12.8,0,1,0,12.8,12.8A12.8,12.8,0,0,0,166.4,345.6Zm179.2,51.2h-128a12.8,12.8,0,0,0,0,25.6h128a12.8,12.8,0,0,0,0-25.6Zm-179.2,0a12.8,12.8,0,1,0,12.8,12.8A12.8,12.8,0,0,0,166.4,396.8ZM460.8,102.4V448a64.19,64.19,0,0,1-64,64H115.2a64.19,64.19,0,0,1-64-64V102.4a64.19,64.19,0,0,1,64-64H173A31.89,31.89,0,0,1,198.4,25.6h21.43a38.35,38.35,0,0,1,72.34,0H313.6A31.89,31.89,0,0,1,339,38.4H396.8A64.19,64.19,0,0,1,460.8,102.4Zm-217.6-64A12.8,12.8,0,1,0,256,25.6,12.81,12.81,0,0,0,243.2,38.4ZM192,96a6.49,6.49,0,0,0,6.4,6.4H313.6A6.49,6.49,0,0,0,320,96V57.6a6.49,6.49,0,0,0-6.4-6.4H292.17a38.35,38.35,0,0,1-72.34,0H198.4a6.49,6.49,0,0,0-6.4,6.4Zm243.2,6.4A38.44,38.44,0,0,0,396.8,64H345.6V96a32.09,32.09,0,0,1-32,32H198.4a32.09,32.09,0,0,1-32-32V64H115.2a38.44,38.44,0,0,0-38.4,38.4V448a38.44,38.44,0,0,0,38.4,38.4H396.8A38.44,38.44,0,0,0,435.2,448Z"/></svg>